# xmcd CD database file
#
# Track frame offsets:
#	150
#	28412
#	56152
#	72818
#	98418
#	120942
#	139324
#	162457
#	181669
#	201635
#	223174
#	247826
#
# Disc length: 3579 seconds
#
# Revision: 1
# Processed by: cddbd v1.5.2PL0 Copyright (c) Steve Scherf et al.
# Submitted via: jetAudio 7
#
DISCID=af0df90c
DTITLE=Africa Mother of the Blues - Le Blues est né en Afrique
DYEAR=2005
DGENRE=Blues
TTITLE0=Idrissa Soumaoro:Lokoli Karamako
TTITLE1=Salif Keita:I Djo Fama
TTITLE2=Ismael Lo:Marie Lo
TTITLE3=Kandia kouyaté:Djanfa
TTITLE4=Sékouba Bambino:Djougouya
TTITLE5=Omar Pené:Tane
TTITLE6=Africando:Gouye Gui
TTITLE7=Tshala Muana:Mulopo
TTITLE8=Mansour seck:Poulore
TTITLE9=Kerfala Kanté:Ndiwa
TTITLE10=Boubacar Traoré:Diarabi
TTITLE11=Nahawa Doumbia:Nyamatoutou
EXTD=YEAR: 2005
EXTT0=
EXTT1=
EXTT2=
EXTT3=
EXTT4=
EXTT5=
EXTT6=
EXTT7=
EXTT8=
EXTT9=
EXTT10=
EXTT11=
PLAYORDER=
